REM DIRINDEX 1\5,1\2\6,1\2\7,1\3\8,1\3\9,1\4\10,1\4\11,1\4\12
REM DIRNAME folder01,folder02,folder03,folder04,folder05,folder06,folder07,folder08,folder09,folder10,folder11,folder12
TITLE ""
FILE "EJE_DB3000_5th_2A_55.mp3" MP3
  TRACK 01 AUDIO
    TITLE "0:"
    INDEX 01 00:00:00
  TRACK 02 AUDIO
    TITLE "10:cjc026_08361"
    INDEX 01 00:00:05
  TRACK 03 AUDIO
    TITLE "0:"
    INDEX 01 00:00:74
  TRACK 04 AUDIO
    TITLE "11:cjc026_08362"
    INDEX 01 00:01:24
  TRACK 05 AUDIO
    TITLE "0:"
    INDEX 01 00:02:16
  TRACK 06 AUDIO
    TITLE "12:cjc026_08363"
    INDEX 01 00:02:43
  TRACK 07 AUDIO
    TITLE "0:"
    INDEX 01 00:03:37
  TRACK 08 AUDIO
    TITLE "10:cjc026_08364"
    INDEX 01 00:03:63
  TRACK 09 AUDIO
    TITLE "0:"
    INDEX 01 00:04:58
  TRACK 10 AUDIO
    TITLE "11:cjc026_08365"
    INDEX 01 00:05:10
  TRACK 11 AUDIO
    TITLE "0:"
    INDEX 01 00:06:28
  TRACK 12 AUDIO
    TITLE "12:cjc026_08366"
    INDEX 01 00:06:55
  TRACK 13 AUDIO
    TITLE "0:"
    INDEX 01 00:07:51
  TRACK 14 AUDIO
    TITLE "10:cjc026_08367"
    INDEX 01 00:08:01
  TRACK 15 AUDIO
    TITLE "0:"
    INDEX 01 00:08:68
  TRACK 16 AUDIO
    TITLE "11:cjc026_08368"
    INDEX 01 00:09:24
  TRACK 17 AUDIO
    TITLE "0:"
    INDEX 01 00:10:49
  TRACK 18 AUDIO
    TITLE "12:cjc026_08369"
    INDEX 01 00:10:74
  TRACK 19 AUDIO
    TITLE "0:"
    INDEX 01 00:11:66
  TRACK 20 AUDIO
    TITLE "10:cjc026_08370"
    INDEX 01 00:12:24
  TRACK 21 AUDIO
    TITLE "0:"
    INDEX 01 00:13:18
  TRACK 22 AUDIO
    TITLE "11:cjc026_08371"
    INDEX 01 00:13:49
  TRACK 23 AUDIO
    TITLE "0:"
    INDEX 01 00:14:60
  TRACK 24 AUDIO
    TITLE "12:cjc026_08372"
    INDEX 01 00:15:11
  TRACK 25 AUDIO
    TITLE "0:"
    INDEX 01 00:16:06
  TRACK 26 AUDIO
    TITLE "10:cjc026_08373"
    INDEX 01 00:16:36
  TRACK 27 AUDIO
    TITLE "0:"
    INDEX 01 00:17:29
  TRACK 28 AUDIO
    TITLE "11:cjc026_08374"
    INDEX 01 00:17:55
  TRACK 29 AUDIO
    TITLE "0:"
    INDEX 01 00:18:52
  TRACK 30 AUDIO
    TITLE "12:cjc026_08375"
    INDEX 01 00:19:05
  TRACK 31 AUDIO
    TITLE "0:"
    INDEX 01 00:19:73
  TRACK 32 AUDIO
    TITLE "10:cjc026_08376"
    INDEX 01 00:20:24
  TRACK 33 AUDIO
    TITLE "0:"
    INDEX 01 00:21:23
  TRACK 34 AUDIO
    TITLE "11:cjc026_08377"
    INDEX 01 00:21:49
  TRACK 35 AUDIO
    TITLE "0:"
    INDEX 01 00:22:44
  TRACK 36 AUDIO
    TITLE "12:cjc026_08378"
    INDEX 01 00:22:70
  TRACK 37 AUDIO
    TITLE "0:"
    INDEX 01 00:23:69
  TRACK 38 AUDIO
    TITLE "10:cjc026_08379"
    INDEX 01 00:24:22
  TRACK 39 AUDIO
    TITLE "0:"
    INDEX 01 00:25:17
  TRACK 40 AUDIO
    TITLE "11:cjc026_08380"
    INDEX 01 00:25:43
  TRACK 41 AUDIO
    TITLE "0:"
    INDEX 01 00:26:36
  TRACK 42 AUDIO
    TITLE "12:cjc026_08381"
    INDEX 01 00:26:62
  TRACK 43 AUDIO
    TITLE "0:"
    INDEX 01 00:27:59
  TRACK 44 AUDIO
    TITLE "10:cjc026_08382"
    INDEX 01 00:28:10
  TRACK 45 AUDIO
    TITLE "0:"
    INDEX 01 00:29:03
  TRACK 46 AUDIO
    TITLE "11:cjc026_08383"
    INDEX 01 00:29:31
  TRACK 47 AUDIO
    TITLE "0:"
    INDEX 01 00:30:26
  TRACK 48 AUDIO
    TITLE "12:cjc026_08384"
    INDEX 01 00:30:52
  TRACK 49 AUDIO
    TITLE "0:"
    INDEX 01 00:31:45
  TRACK 50 AUDIO
    TITLE "10:cjc026_08385"
    INDEX 01 00:31:71
  TRACK 51 AUDIO
    TITLE "0:"
    INDEX 01 00:32:74
  TRACK 52 AUDIO
    TITLE "11:cjc026_08386"
    INDEX 01 00:33:26
  TRACK 53 AUDIO
    TITLE "0:"
    INDEX 01 00:34:18
  TRACK 54 AUDIO
    TITLE "12:cjc026_08387"
    INDEX 01 00:34:43
  TRACK 55 AUDIO
    TITLE "0:"
    INDEX 01 00:35:47
  TRACK 56 AUDIO
    TITLE "10:cjc026_08388"
    INDEX 01 00:35:72
  TRACK 57 AUDIO
    TITLE "0:"
    INDEX 01 00:36:52
  TRACK 58 AUDIO
    TITLE "11:cjc026_08389"
    INDEX 01 00:37:08
  TRACK 59 AUDIO
    TITLE "0:"
    INDEX 01 00:38:00
  TRACK 60 AUDIO
    TITLE "12:cjc026_08390"
    INDEX 01 00:38:26
  TRACK 61 AUDIO
    TITLE "0:"
    INDEX 01 00:39:05
  TRACK 62 AUDIO
    TITLE "10:cjc026_08391"
    INDEX 01 00:39:39
  TRACK 63 AUDIO
    TITLE "0:"
    INDEX 01 00:40:34
  TRACK 64 AUDIO
    TITLE "11:cjc026_08392"
    INDEX 01 00:40:60
  TRACK 65 AUDIO
    TITLE "0:"
    INDEX 01 00:41:55
  TRACK 66 AUDIO
    TITLE "12:cjc026_08393"
    INDEX 01 00:42:08
  TRACK 67 AUDIO
    TITLE "0:"
    INDEX 01 00:43:05
  TRACK 68 AUDIO
    TITLE "10:cjc026_08394"
    INDEX 01 00:43:31
  TRACK 69 AUDIO
    TITLE "0:"
    INDEX 01 00:44:18
  TRACK 70 AUDIO
    TITLE "11:cjc026_08395"
    INDEX 01 00:44:46
  TRACK 71 AUDIO
    TITLE "0:"
    INDEX 01 00:45:45
  TRACK 72 AUDIO
    TITLE "12:cjc026_08396"
    INDEX 01 00:45:73
  TRACK 73 AUDIO
    TITLE "0:"
    INDEX 01 00:46:60
